<svg width="251.752490234375px" height="381.207470703125px" xmlns="http://www.w3.org/2000/svg" viewBox="124.1237548828125 -115.6037353515625 251.752490234375 381.207470703125" style="background: rgba(0, 0, 0, 0);" preserveAspectRatio="xMidYMid"><defs><linearGradient id="editing-outline-gradient" x1="-0.44551857559931685" x2="1.445518575599317" y1="0.17443184554284336" y2="0.8255681544571567"><stop offset="0" stop-color="none"></stop><stop offset="1" stop-color="#c19b76"></stop></linearGradient><filter id="editing-outline" x="-100%" y="-100%" width="300%" height="300%"><feMorphology in="SourceGraphic" operator="dilate" radius="1" result="outline"></feMorphology><feComposite operator="out" in="outline" in2="SourceAlpha"></feComposite></filter></defs><g filter="url(#editing-outline)"><g transform="translate(166.39999866485596, 126.84000015258789)"><path d="M46.08-102.24L46.08-102.24L46.08-102.24Q54.40-102.24 61.60-99.28L61.60-99.28L61.60-99.28Q68.80-96.32 74.08-90.08L74.08-90.08L74.08-90.08Q79.36-83.84 82.32-74L82.32-74L82.32-74Q85.28-64.16 85.28-50.40L85.28-50.40L85.28-50.40Q85.28-36.64 82.08-26.80L82.08-26.80L82.08-26.80Q78.88-16.96 73.44-10.72L73.44-10.72L73.44-10.72Q68-4.48 60.96-1.52L60.96-1.52L60.96-1.52Q53.92 1.44 46.08 1.44L46.08 1.44L46.08 1.44Q37.60 1.44 30.48-1.52L30.48-1.52L30.48-1.52Q23.36-4.48 18.08-10.72L18.08-10.72L18.08-10.72Q12.80-16.96 9.84-26.80L9.84-26.80L9.84-26.80Q6.88-36.64 6.88-50.40L6.88-50.40L6.88-50.40Q6.88-63.52 10.08-73.28L10.08-73.28L10.08-73.28Q13.28-83.04 18.64-89.52L18.64-89.52L18.64-89.52Q24-96 31.12-99.12L31.12-99.12L31.12-99.12Q38.24-102.24 46.08-102.24ZM21.60-50.40L21.60-50.40L21.60-50.40Q21.60-37.76 23.68-29.84L23.68-29.84L23.68-29.84Q25.76-21.92 29.12-17.44L29.12-17.44L29.12-17.44Q32.48-12.96 36.96-11.28L36.96-11.28L36.96-11.28Q41.44-9.60 46.24-9.60L46.24-9.60L46.24-9.60Q51.04-9.60 55.44-11.44L55.44-11.44L55.44-11.44Q59.84-13.28 63.20-18L63.20-18L63.20-18Q66.56-22.72 68.56-30.56L68.56-30.56L68.56-30.56Q70.56-38.40 70.56-50.40L70.56-50.40L70.56-50.40Q70.56-62.88 68.48-70.88L68.48-70.88L68.48-70.88Q66.40-78.88 63.04-83.36L63.04-83.36L63.04-83.36Q59.68-87.84 55.20-89.52L55.20-89.52L55.20-89.52Q50.72-91.20 45.92-91.20L45.92-91.20L45.92-91.20Q41.12-91.20 36.72-89.36L36.72-89.36L36.72-89.36Q32.32-87.52 28.96-82.80L28.96-82.80L28.96-82.80Q25.60-78.08 23.60-70.24L23.60-70.24L23.60-70.24Q21.60-62.40 21.60-50.40ZM104.96-84.96L100.48-94.72L100.48-94.72Q106.72-98.88 113.44-100.56L113.44-100.56L113.44-100.56Q120.16-102.24 126.24-102.24L126.24-102.24L126.24-102.24Q132.96-102.24 138.64-100.32L138.64-100.32L138.64-100.32Q144.32-98.40 148.32-94.96L148.32-94.96L148.32-94.96Q152.32-91.52 154.56-86.80L154.56-86.80L154.56-86.80Q156.80-82.08 156.80-76.48L156.80-76.48L156.80-76.48Q156.80-67.04 151.92-60.80L151.92-60.80L151.92-60.80Q147.04-54.56 140-52L140-52L140-52Q148.80-50.08 154.56-43.60L154.56-43.60L154.56-43.60Q160.32-37.12 160.32-28L160.32-28L160.32-28Q160.32-19.84 157.12-14.24L157.12-14.24L157.12-14.24Q153.92-8.64 148.80-5.20L148.80-5.20L148.80-5.20Q143.68-1.76 137.20-0.16L137.20-0.16L137.20-0.16Q130.72 1.44 124 1.44L124 1.44L124 1.44Q117.28 1.44 110.56 0.16L110.56 0.16L110.56 0.16Q103.84-1.12 98.72-3.52L98.72-3.52L101.92-14.40L101.92-14.40Q104.64-13.44 107.04-12.56L107.04-12.56L107.04-12.56Q109.44-11.68 112-11.12L112-11.12L112-11.12Q114.56-10.56 117.36-10.24L117.36-10.24L117.36-10.24Q120.16-9.92 123.84-9.92L123.84-9.92L123.84-9.92Q127.84-9.92 131.76-10.88L131.76-10.88L131.76-10.88Q135.68-11.84 138.72-14.08L138.72-14.08L138.72-14.08Q141.76-16.32 143.68-19.76L143.68-19.76L143.68-19.76Q145.60-23.20 145.60-28.32L145.60-28.32L145.60-28.32Q145.60-32.80 143.92-36.16L143.92-36.16L143.92-36.16Q142.24-39.52 139.28-41.60L139.28-41.60L139.28-41.60Q136.32-43.68 132.32-44.72L132.32-44.72L132.32-44.72Q128.32-45.76 123.52-45.76L123.52-45.76L111.52-45.76L111.52-56.64L120.80-56.64L120.80-56.64Q130.08-56.64 136.24-61.12L136.24-61.12L136.24-61.12Q142.40-65.60 142.40-74.88L142.40-74.88L142.40-74.88Q142.40-78.24 141.04-81.20L141.04-81.20L141.04-81.20Q139.68-84.16 137.36-86.32L137.36-86.32L137.36-86.32Q135.04-88.48 131.92-89.76L131.92-89.76L131.92-89.76Q128.80-91.04 125.12-91.04L125.12-91.04L125.12-91.04Q120-91.04 115.52-89.76L115.52-89.76L115.52-89.76Q111.04-88.48 104.96-84.96L104.96-84.96Z" fill="url(#editing-outline-gradient)"></path></g></g><style>text {
  font-size: 64px;
  font-family: Arial Black;
  dominant-baseline: central;
  text-anchor: middle;
}</style></svg>